#!OML:ASF E:\motion texture\Top Level 1\Subject 1\Session 1\male.ASF
:FULLY-SPECIFIED
:DEGREES
629
root -24.5703 17.9737 5.02749 152.882 -73.5396 -140.816
lowerback 0.627495 -0.67829 8.0088
upperback -1.40163 -1.04752 7.69753
thorax -1.79099 -0.740649 3.53316
lowerneck -9.71519 -11.4056 -13.7602
upperneck 33.9128 -19.3087 8.47803
head 15.8845 -9.56949 2.31466
rclavicle -4.69132e-014 2.70347e-014
rhumerus -24.2289 -5.95621 -54.104
rradius 54.0878
rwrist 7.09311
rhand -25.9003 -28.467
rfingers 7.12502
rthumb 0.642048 -58.4458
lclavicle -4.69132e-014 2.70347e-014
lhumerus -35.5775 22.2408 44.755
lradius 91.8177
lwrist -17.6103
lhand -26.9011 20.4516
lfingers 7.12502
lthumb -0.324586 50.4311
rfemur -9.27253 3.21526 18.6135
rtibia 34.9435
rfoot -5.74183 -2.94785
rtoes -10.0742
lfemur -28.5561 -3.21825 -11.8076
ltibia 39.9156
lfoot -6.46681 -6.65737
ltoes -5.6102
630
root -24.7656 18.0436 5.11842 155.045 -73.081 -142.928
lowerback 0.516709 -0.855792 7.74026
upperback -1.40665 -1.31922 7.94522
thorax -1.72043 -0.878013 3.94726
lowerneck -9.09741 -11.6416 -13.9386
upperneck 33.5564 -19.8475 8.75683
head 15.7175 -9.82697 2.38167
rclavicle -3.12092e-014 -5.88403e-014
rhumerus -24.2563 -5.78939 -52.9081
rradius 54.6404
rwrist 6.87289
rhand -25.9736 -28.5606
rfingers 7.12502
rthumb 0.571236 -58.5396
lclavicle -3.12092e-014 -5.88403e-014
lhumerus -36.4926 22.7397 42.1733
lradius 91.9809
lwrist -17.1398
lhand -26.9287 20.6414
lfingers 7.12502
lthumb -0.351243 50.6208
rfemur -10.0578 3.1534 18.1913
rtibia 35.4526
rfoot -5.00703 -3.51372
rtoes -9.9695
lfemur -27.5799 -2.90333 -12.4577
ltibia 39.0166
lfoot -5.64977 -6.60984
ltoes -5.5893
631
root -24.9609 18.118 5.20975 157.11 -72.6132 -144.951
lowerback 0.414304 -1.03525 7.47323
upperback -1.3991 -1.59369 8.18469
thorax -1.63688 -1.01695 4.35189
lowerneck -8.49894 -11.8494 -14.1044
upperneck 33.2116 -20.3389 9.02116
head 15.5543 -10.0656 2.45041
rclavicle -1.5704e-014 -1.90833e-014
rhumerus -24.2759 -5.61634 -51.7017
rradius 55.1726
rwrist 6.64179
rhand -26.0106 -28.6516
rfingers 7.12502
rthumb 0.535479 -58.6307
lclavicle -1.5704e-014 -1.90833e-014
lhumerus -37.4472 23.1729 39.6341
lradius 92.0512
lwrist -16.7064
lhand -26.9496 20.8328
lfingers 7.12502
lthumb -0.371458 50.8122
rfemur -10.8771 3.06947 17.8019
rtibia 35.9325
rfoot -4.31364 -4.08593
rtoes -9.83265
lfemur -26.6114 -2.58022 -13.0913
ltibia 38.1012
lfoot -4.78824 -6.55212
ltoes -5.6145
632
root -25.1561 18.1963 5.30134 159.077 -72.1393 -146.891
lowerback 0.324157 -1.21628 7.20637
upperback -1.37891 -1.86982 8.41478
thorax -1.54257 -1.15697 4.7466
lowerneck -7.92426 -12.0314 -14.2612
upperneck 32.8823 -20.7866 9.27228
head 15.3983 -10.2866 2.52072
rclavicle -3.39922e-014 -7.95139e-015
rhumerus -24.2828 -5.44625 -50.4924
rradius 55.6733
rwrist 6.41088
rhand -26.0107 -28.7421
rfingers 7.12502
rthumb 0.535401 -58.7212
lclavicle -3.39922e-014 -7.95139e-015
lhumerus -38.4315 23.536 37.1575
lradius 92.0388
lwrist -16.3161
lhand -26.9679 21.0285
lfingers 7.12502
lthumb -0.389054 51.0078
rfemur -11.7237 2.9643 17.4488
rtibia 36.378
rfoot -3.66844 -4.65735
rtoes -9.66757
lfemur -25.656 -2.25044 -13.705
ltibia 37.1773
lfoot -3.88576 -6.48659
ltoes -5.67414
633
root -25.351 18.278 5.39305 160.943 -71.6619 -148.743
lowerback 0.24831 -1.39996 6.94051
upperback -1.34607 -2.14877 8.63525
thorax -1.4387 -1.29877 5.13075
lowerneck -7.37653 -12.1881 -14.4099
upperneck 32.5705 -21.1917 9.51142
head 15.2507 -10.4899 2.59263
rclavicle -3.57812e-014 -2.54444e-014
rhumerus -24.2813 -5.27515 -49.2838
rradius 56.1448
rwrist 6.17828
rhand -25.9688 -28.8427
rfingers 7.12502
rthumb 0.575919 -58.8217
lclavicle -3.57812e-014 -2.54444e-014
lhumerus -39.4376 23.8295 34.7591
lradius 91.9525
lwrist -15.9724
lhand -26.9803 21.2252
lfingers 7.12502
lthumb -0.40102 51.2045
rfemur -12.5923 2.83831 17.1379
rtibia 36.7855
rfoot -3.07783 -5.2206
rtoes -9.47521
lfemur -24.7202 -1.91568 -14.2927
ltibia 36.2536
lfoot -2.95121 -6.41346
ltoes -5.77409
634
root -25.5452 18.3625 5.48472 162.708 -71.1831 -150.51
lowerback 0.189817 -1.58416 6.67688
upperback -1.30136 -2.42714 8.84465
thorax -1.32817 -1.44074 5.50222
lowerneck -6.85515 -12.3227 -14.5556
upperneck 32.2766 -21.5593 9.74185
head 15.1129 -10.6774 2.66702
rclavicle 2.72335e-014 -2.54444e-014
rhumerus -24.2796 -5.10254 -48.0768
rradius 56.5876
rwrist 5.94102
rhand -25.8931 -28.944
rfingers 7.12502
rthumb 0.649026 -58.9227
lclavicle 2.72335e-014 -2.54444e-014
lhumerus -40.4514 24.052 32.4599
lradius 91.8036
lwrist -15.6781
lhand -26.99 21.4268
lfingers 7.12502
lthumb -0.410469 51.4062
rfemur -13.4783 2.69323 16.8738
rtibia 37.1528
rfoot -2.54658 -5.76898
rtoes -9.25628
lfemur -23.8099 -1.57749 -14.8497
ltibia 35.34
lfoot -1.98621 -6.33411
ltoes -5.87193
635
root -25.7385 18.4491 5.5762 164.376 -70.706 -152.196
lowerback 0.150615 -1.76914 6.41421
upperback -1.24427 -2.70497 9.04176
thorax -1.21173 -1.58289 5.86049
lowerneck -6.36532 -12.4365 -14.6984
upperneck 32.0036 -21.8914 9.96346
head 14.9873 -10.8496 2.74285
rclavicle -5.62561e-014 -1.04958e-013
rhumerus -24.2743 -4.93447 -46.8794
rradius 56.9936
rwrist 5.70574
rhand -25.7829 -29.0483
rfingers 7.12502
rthumb 0.755381 -59.0267
lclavicle -5.62561e-014 -1.04958e-013
lhumerus -41.4625 24.207 30.2741
lradius 91.6025
lwrist -15.4313
lhand -26.9938 21.6325
lfingers 7.12502
lthumb -0.414081 51.6119
rfemur -14.3754 2.52925 16.6594
rtibia 37.4764
rfoot -2.0786 -6.29329
rtoes -9.02355
lfemur -22.9301 -1.23787 -15.3728
ltibia 34.4481
lfoot -1.00762 -6.23768
ltoes -5.98897
636
root -25.9307 18.5372 5.66731 165.949 -70.2332 -153.803
lowerback 0.131261 -1.95595 6.15144
upperback -1.17646 -2.98351 9.2269
thorax -1.09146 -1.72589 6.20664
lowerneck -5.90489 -12.5298 -14.8417
upperneck 31.7522 -22.1888 10.1768
head 14.8737 -11.0069 2.82068
rclavicle 4.53229e-014 -3.02153e-014
rhumerus -24.2677 -4.76713 -45.6956
rradius 57.3625
rwrist 5.4725
rhand -25.6383 -29.1548
rfingers 7.12502
rthumb 0.895119 -59.1327
lclavicle 4.53229e-014 -3.02153e-014
lhumerus -42.4692 24.2995 28.2105
lradius 91.3603
lwrist -15.2323
lhand -26.996 21.836
lfingers 7.12502
lthumb -0.416178 51.8154
rfemur -15.2794 2.34892 16.4978
rtibia 37.7537
rfoot -1.67589 -6.78633
rtoes -8.77676
lfemur -22.087 -0.898847 -15.8577
ltibia 33.5887
lfoot -0.0292364 -6.11467
ltoes -6.13114
637
root -26.1217 18.626 5.75795 167.43 -69.7671 -155.335
lowerback 0.132727 -2.14297 5.88973
upperback -1.09761 -3.2603 9.39761
thorax -0.968103 -1.86846 6.53746
lowerneck -5.47785 -12.6066 -14.9828
upperneck 31.5233 -22.4578 10.3824
head 14.7737 -11.1511 2.89855
rclavicle -2.82274e-014 1.09729e-013
rhumerus -24.2646 -4.60669 -44.531
rradius 57.6934
rwrist 5.24401
rhand -25.4636 -29.2621
rfingers 7.12502
rthumb 1.06382 -59.2392
lclavicle -2.82274e-014 1.09729e-013
lhumerus -43.4559 24.3352 26.282
lradius 91.0853
lwrist -15.0779
lhand -26.9893 22.0263
lfingers 7.12502
lthumb -0.409768 52.0057
rfemur -16.1855 2.154 16.3919
rtibia 37.9821
rfoot -1.33798 -7.24058
rtoes -8.52203
lfemur -21.2858 -0.561456 -16.3013
ltibia 32.7728
lfoot 0.937352 -5.96625
ltoes -6.29343
638
root -26.3113 18.7148 5.84794 168.827 -69.3097 -156.799
lowerback 0.155145 -2.32905 5.62768
upperback -1.00968 -3.53346 9.55231
thorax -0.844206 -2.00958 6.85213
lowerneck -5.07855 -12.6683 -15.1221
upperneck 31.314 -22.7016 10.5826
head 14.6852 -11.2836 2.97719
rclavicle 1.66979e-014 -4.13472e-014
rhumerus -24.2709 -4.4553 -43.3902
rradius 57.9853
rwrist 5.02202
rhand -25.2603 -29.3654
rfingers 7.12502
rthumb 1.26017 -59.3414
lclavicle 1.66979e-014 -4.13472e-014
lhumerus -44.4119 24.3203 24.4969
lradius 90.7854
lwrist -14.9669
lhand -26.9748 22.2032
lfingers 7.12502
lthumb -0.395754 52.1825
rfemur -17.0902 1.94697 16.3424
rtibia 38.1604
rfoot -1.06127 -7.64848
rtoes -8.26941
lfemur -20.5313 -0.226542 -16.7007
ltibia 32.0084
lfoot 1.878 -5.79339
ltoes -6.46201
639
root -26.4993 18.8029 5.93719 170.14 -68.8632 -158.194
lowerback 0.197944 -2.51442 5.36607
upperback -0.914226 -3.80325 9.69148
thorax -0.721346 -2.1494 7.15083
lowerneck -4.70779 -12.7159 -15.261
upperneck 31.127 -22.9216 10.7756
head 14.6093 -11.4052 3.05561
rclavicle -3.97569e-015 1.90833e-014
rhumerus -24.2905 -4.3117 -42.2765
rradius 58.2388
rwrist 4.80921
rhand -25.0307 -29.4581
rfingers 7.12502
rthumb 1.4819 -59.4327
lclavicle -3.97569e-015 1.90833e-014
lhumerus -45.3327 24.2623 22.8611
lradius 90.4682
lwrist -14.8966
lhand -26.9516 22.3627
lfingers 7.12502
lthumb -0.373303 52.3421
rfemur -17.9884 1.72915 16.3518
rtibia 38.2861
rfoot -0.838506 -8.00282
rtoes -8.03182
lfemur -19.826 0.104916 -17.0524
ltibia 31.2994
lfoot 2.77623 -5.59593
ltoes -6.66074
640
root -26.6857 18.8896 6.02561 171.377 -68.4295 -159.526
lowerback 0.260206 -2.7007 5.10349
upperback -0.812722 -4.0719 9.81567
thorax -0.600493 -2.28901 7.43501
lowerneck -4.36611 -12.7493 -15.3994
upperneck 30.9627 -23.1164 10.9585
head 14.5452 -11.5155 3.13293
rclavicle 7.99114e-014 -1.1291e-013
rhumerus -24.3211 -4.17088 -41.1961
rradius 58.4542
rwrist 4.6032
rhand -24.7686 -29.5515
rfingers 7.12502
rthumb 1.73506 -59.5242
lclavicle 7.99114e-014 -1.1291e-013
lhumerus -46.2262 24.1661 21.3723
lradius 90.1476
lwrist -14.8614
lhand -26.92 22.5015
lfingers 7.12502
lthumb -0.342843 52.4809
rfemur -18.8756 1.50282 16.4199
rtibia 38.3575
rfoot -0.662679 -8.2958
rtoes -7.80972
lfemur -19.1719 0.432195 -17.3542
ltibia 30.6481
lfoot 3.6178 -5.37475
ltoes -6.88234
641
root -26.8703 18.974 6.11313 172.542 -68.0107 -160.798
lowerback 0.340277 -2.88591 4.84033
upperback -0.705542 -4.33672 9.92295
thorax -0.481765 -2.4269 7.70233
lowerneck -4.0517 -12.7717 -15.5351
upperneck 30.8168 -23.2919 11.136
head 14.4917 -11.6161 3.20952
rclavicle 6.36111e-015 6.99722e-014
rhumerus -24.368 -4.04062 -40.1532
rradius 58.632
rwrist 4.40504
rhand -24.4799 -29.6405
rfingers 7.12502
rthumb 2.01386 -59.6107
lclavicle 6.36111e-015 6.99722e-014
lhumerus -47.0745 24.0439 20.0355
lradius 89.8251
lwrist -14.8609
lhand -26.8816 22.6247
lfingers 7.12502
lthumb -0.305709 52.6042
rfemur -19.7506 1.27052 16.5467
rtibia 38.3763
rfoot -0.524558 -8.52078
rtoes -7.61065
lfemur -18.5734 0.755083 -17.6036
ltibia 30.0574
lfoot 4.3911 -5.13215
ltoes -7.1339
642
root -27.0533 19.0553 6.1996 173.639 -67.6092 -162.013
lowerback 0.436852 -3.0701 4.57815
upperback -0.59441 -4.59763 10.0123
thorax -0.366744 -2.56294 7.95075
lowerneck -3.76508 -12.7851 -15.6638
upperneck 30.6914 -23.4501 11.3028
head 14.4485 -11.708 3.28225
rclavicle -3.06128e-014 1.11319e-014
rhumerus -24.4369 -3.91867 -39.1523
rradius 58.7745
rwrist 4.21253
rhand -24.1679 -29.7287
rfingers 7.12502
rthumb 2.31522 -59.6959
lclavicle -3.06128e-014 1.11319e-014
lhumerus -47.8701 23.9046 18.8494
lradius 89.5026
lwrist -14.8941
lhand -26.8342 22.7264
lfingers 7.12502
lthumb -0.259993 52.706
rfemur -20.6044 1.03366 16.7307
rtibia 38.3385
rfoot -0.419132 -8.67284
rtoes -7.43762
lfemur -18.0286 1.07342 -17.7999
ltibia 29.5265
lfoot 5.08572 -4.87188
ltoes -7.41813
643
root -27.2345 19.1328 6.28496 174.674 -67.2273 -163.179
lowerback 0.549254 -3.25384 4.31432
upperback -0.480812 -4.85538 10.0843
thorax -0.256578 -2.69742 8.18252
lowerneck -3.50261 -12.7901 -15.7891
upperneck 30.583 -23.5921 11.462
head 14.4142 -11.7918 3.35297
rclavicle -6.04305e-014 -7.31528e-014
rhumerus -24.5256 -3.80677 -38.1968
rradius 58.8797
rwrist 4.02692
rhand -23.8391 -29.8038
rfingers 7.12502
rthumb 2.63274 -59.7673
lclavicle -6.04305e-014 -7.31528e-014
lhumerus -48.6123 23.7587 17.811
lradius 89.1856
lwrist -14.9598
lhand -26.7787 22.806
lfingers 7.12502
lthumb -0.206357 52.7856
rfemur -21.434 0.794649 16.9685
rtibia 38.2457
rfoot -0.333143 -8.75049
rtoes -7.29627
lfemur -17.5388 1.3853 -17.9429
ltibia 29.0571
lfoot 5.69274 -4.59669
ltoes -7.74703
